<?xml version="1.0" encoding="utf-8"?>
<!-- Generator: Adobe Illustrator 21.0.2, SVG Export Plug-In . SVG Version: 6.00 Build 0)  -->
<svg version="1.1" id="Layer_1" xmlns="http://www.w3.org/2000/svg" xmlns:xlink="http://www.w3.org/1999/xlink" x="0px" y="0px"
	 viewBox="0 0 6944.9 1808.8" style="enable-background:new 0 0 6944.9 1808.8;" xml:space="preserve">
<style type="text/css">
	.st0{fill:#F6DE1E;}
	.st1{fill:#232323;}
	.st2{fill:#252525;}
	.st3{fill:#242424;}
	.st4{fill:#FEE61F;}
	.st5{fill:#FEE91F;}
	.st6{fill:#FEE81F;}
</style>
<g>
	<g>
		<g>
			<g>
				<path class="st0" d="M6058.9,1761.2c-275.5,0-551.1-0.8-826.4,0.8c-41.6,0.2-49.7-11.9-49.3-51.2c1.2-554.4,1.2-1108.3,0-1662.7
					c0-37.1,8.4-48.5,47.3-48.1C5786.2,1.4,6342,1.4,6897.8,0c39.5,0,46.9,11.9,46.9,48.7c-1.2,554.4-1.2,1108.3,0.2,1662.7
					c0,39.5-9,51.2-49.7,50.8C6616.3,1760.1,6337.5,1761.2,6058.9,1761.2z"/>
				<path class="st1" d="M793.7,848.1c28.5-13.1,40.7,7,54,25.2c76.6,103.6,153.5,207,230.1,310.5c8.6,11.5,18,22.5,28.7,36.2
					c88-116.1,174-230.1,260.6-343.5c13.1-17,23.3-41.4,54-29.1c-3.3,21.9-20.7,35.2-32.5,51.2c-79.2,105.6-158.2,211.5-239.3,315.7
					c-18.2,23.3-18.8,37.5,0,61c95.2,120,187.9,241.4,281.3,362.5c7.8,9.8,18.8,18,19.7,32.3c-28,13.1-40.1-7-53.8-24.8
					c-95.4-123.4-191.2-247.1-289.9-374.8c-26.4,33.8-50.8,64.9-75.1,96.4c-71.9,92.9-143.9,185.7-214.7,279.6
					c-14.9,20.1-30.9,28-55.9,27.8c-240.1-0.8-480.1-1.2-720.4,0c-30.5,0-40.3-6.8-40.3-39.5c1.2-357.8,1.2-715.5,0-1073.3
					C0,530,8,522,39.7,522.2c228.9,1.4,457.7,0.6,686.6,1.2c12.9,0,37.1-12.3,37.5,14.3c0.2,27-24,15.4-36.8,15.4
					c-216,0.8-431.9,1.4-647.7-0.2c-39.1-0.2-48.1,11.5-47.5,48.5c2,138.6,1.8,277.4,0,415.8c-0.2,31.9,9,40.3,40.7,40.1
					c198.4-1.4,396.3-0.6,594.7-0.6c12.9,0,25.8,0,38.7,0.6c9.2,0.2,14.1,6.3,14.7,15.6c0.6,9.2-4.1,16.2-13.1,17
					c-12.9,1.2-25.8,0.8-38.7,0.8c-195.1,0-390,1.4-584.9-1.2c-44.6-0.6-52.6,13.1-52,54c2.5,149.8,2,299.7,0.2,449.5
					c-0.2,35.8,5.9,49.9,46.7,49.7c227-2,454.5-0.8,681.5,0.6c18,0,25.4-7,34.4-18.8c91.3-118.7,181.8-237.9,274.9-355.4
					c18-22.7,10.2-35-3.7-53.2c-81.9-107.7-163.4-215.8-244.4-324.1C810.7,878.6,795.9,867,793.7,848.1z"/>
				<path class="st2" d="M2196.8,1030.3c-57.5-131.8-161.3-203.5-305.6-203.7c-145.8-0.2-250.8,69.6-314,201.2
					c-4.7,10.2-3.9,24.8-20.9,29.9c0-64.3,0-127.1,0-190c0-11.5,0.8-23.3-16.2-23.3c-16.4,0-16.8,11.7-17,23.3
					c-0.2,9.6,0,19.4,0,29.1c0,335.1-0.2,670,0.8,1005.3c0,17.6-15.4,51.2,14.7,51.4c35,0.6,17-34.8,17.4-53
					c1.8-146,0.8-291.7,0.8-438.3c5.7,0.6,8.4,0.6,8.6,1.2c1.8,4.5,2.7,9.2,4.5,13.7c54.7,137.4,157.4,208.4,303.6,213.5
					c149.2,5.3,258.1-63.1,319.6-197.8C2262.1,1341.3,2263.9,1184.3,2196.8,1030.3z M2188.2,1401.3c-3.9,20.7-10.4,40.3-20.7,59.2
					c-6.6,20.1-15.8,38.7-27.8,55.7c-10.8,20.3-25.2,38.7-42.8,54.7c-16.8,18.2-35.8,33-56.9,43.6c-12.9,7.8-27,14.1-41.6,18.6
					c-33.2,17.4-68.8,25.4-107.1,24c-15.8,0-31.1-1.4-46.1-3.9c-37.5-3.3-72.5-14.1-104.4-31.1c-29.3-13.7-56.5-32.5-81.1-55.3
					c-34.4-34.8-58.3-75.7-71.4-122.6l-0.6-3.3c-1.2-3.9-2.5-7.8-3.7-11.7c0-0.6-0.2-1.2-0.2-1.8c-0.8-3.1-1.8-5.9-2.7-9.2
					c-1.8-5.3-3.7-10.4-5.1-16.2v-0.2c-2-6.3-4.1-12.3-5.9-18.8l-1.4-11.9c-1.2-3.7-2.5-7.2-3.3-11.1c-3.3-24.6-6.6-49.3-9.8-73.9
					c-0.6-13.5,0.2-26.6,2-39.1c0-0.2,0-0.2,0-0.6v-0.8c0-8,0.2-15.8,1.2-24c0.2-17.6,2-34.8,5.3-51.4c2-29.7,9.8-57.5,23.5-83.7
					c4.7-14.3,10.8-27.8,18.2-40.7c11.1-28,27.8-53.2,50.2-74.7c5.7-6.6,11.7-12.9,18-18.8c16.4-17.6,34.8-31.7,54.7-42.8
					c17-11.9,35.6-21.3,55.7-27.8c33.2-17.4,68.8-25.4,107.1-24c21.5,0,42.2,2.7,62.2,7.6c53.8,11.1,101.9,38.3,143.3,75.9
					c23.3,23.3,42,49.7,55.3,79c8.4,14.3,15.4,29.3,20.9,45.2c4.1,10.4,8,21.3,11.5,32.5c0.2,1.8,0.6,3.3,0.6,5.1
					c1.2,3.7,2.5,7.2,3.3,10.8l2.5,17c1.2,3.9,2.7,7.8,3.7,11.9l0.6,3.7c0.8,2.7,1.8,5.3,2.5,8.4l9.8,73.9c0,2.5,0,4.5,0,7
					c1.2,9.6,2.7,19.4,3.9,29.1c0.6,19.2-0.8,37.7-4.7,55.7C2205.8,1348.9,2199.8,1375.7,2188.2,1401.3z"/>
				<path class="st3" d="M2824.8,1266.4c103.2,1.2,206.1,0.6,309.3,0.6c75.7,0,151.3,0,227,0c135.1,0,135.1,0,110.7-135.7
					c-31.1-172-144.7-282.3-310.8-302.4c-155-18.6-295.8,66.9-363.2,223.5c-50.2,116.7-51.4,237.9-23.5,359.9
					c44.6,194.7,171.8,290.5,368.5,279c173-9.8,301.1-118.7,325.5-276.2c1.4-9.8,9.6-23.5-6.3-28.5c-16.2-5.1-23.1,6.3-26.4,20.3
					c-3.7,15.6-6.6,31.3-11.7,46.7c-40.3,126.3-133.7,193.9-284.6,206.1c-133.7,10.8-243.2-46.9-300.3-159.1
					c-31.9-62.8-42.2-131-48.7-200.2C2788,1270.5,2799,1266,2824.8,1266.4z M2799.2,1197.8c1.2-6.3,2.5-12.9,3.7-19.2
					c0.6-2.7,1.2-5.3,2-8c0.2-3.3,1.2-6.6,2.7-9.6c0.2-2.7,0.8-5.3,1.8-7.8c0.2-1.4,1.2-3.3,1.8-4.7c0-3.3,0.8-6.6,2-9.6
					c1.8-10.2,4.1-20.3,9.2-29.7c0,0,0-0.2,0.2-0.2c1.4-5.9,3.1-11.9,5.1-18c1.8-5.3,4.1-10.2,7-14.9c0.8-3.7,1.8-7,3.3-10.2
					c8.4-18,13.7-35.8,24.6-52.6c5.7-13.7,12.9-26.6,20.9-37.5c7.2-9.6,17.4-19.4,28.7-28c4.5-4.1,9.2-8.4,14.3-12.5
					c11.7-11.7,26.4-23.1,42.2-31.9c10.2-7.2,21.3-12.9,33-17.4c16.4-9.2,34.2-15.6,50.6-16.4c12.3-4.7,24.6-7.8,36.2-7.8
					c10.8-1.2,21.5-1.4,31.9-0.6c7,0,13.7,0.2,20.7,0.8c8.4,0,16.4,0.8,24.6,2c13.1,0.6,26,2.7,38.7,6.6
					c15.8,1.4,31.1,5.3,46.3,11.7c1.2,0.6,2.5,1.2,3.3,2c0.8,0.2,1.8,0.6,2.7,0.8c1.2,0.6,2,1.2,3.3,1.8c2.7,0.8,5.3,2,8,3.1
					c11.9,7,24,13.7,35.8,20.9c3.3,2.5,6.6,4.7,9.6,7.6c1.8,1.2,3.9,2.5,5.7,3.3c6.6,4.7,12.5,9.8,18.2,15.6
					c12.5,10.2,23.1,22.7,31.3,36.4c5.1,7,9.6,14.3,13.5,22.1c2,2,3.9,4.7,5.3,7.2c15.8,26.6,24.6,55.3,31.1,85.6
					c2,9.8,4.7,19.7,7,29.9c1.4,2.7,2.5,5.3,2.7,8.6c0.2,0.6,0.8,1.4,1.2,2.5c0.6,1.8,1.2,3.7,1.4,5.1c1.4,3.1,2.5,6.3,3.1,9.2v0.2
					c1.2,2.5,2,5.3,2,8.4c0.2,9,2.7,17.4,3.9,26.4c0.2,3.3,0.6,6.6,0.8,9.6c0.2,1.8,0.2,3.7,0.6,5.3c0,0.2,0.2,0.8,0.6,1.4
					c8,21.5-13.1,37.5-30.3,33.8c-1.8,0-3.3-0.2-4.7-0.2c-0.2,0-0.6,0-0.8,0c-1.2,0-2.7,0-3.9-0.2c-0.8,0-1.4,0.2-2.5,0.2
					c-0.2,0-0.6,0-0.8,0c-1.2,0.2-2.5,0.2-3.7,0.2c-0.6,0-1.4,0-2,0s-1.2,0-1.4,0c-2,0-4.1-0.2-6.3-0.6c-1.4,0.2-3.3,0.2-5.1,0.2
					c-42,0.6-82.5,6.3-124.5,3.9c-1.8,0-3.3-0.2-5.1-0.6c-6.6,0.2-13.5,0.8-20.1,0.8c-5.1,0-10.4,0-15.6-0.2c-0.6,0-1.2,0-1.4,0
					c-2.5,0.2-8.4,0.6-9.2,0.6c-23.1,1.2-46.1,0.2-69.4-0.8c-10.9-0.6-21.3-1.2-31.9-1.4c-0.8,0-7,0-9.8-0.2c-3.1,0-8.4,0-9,0
					c-14.3,0-28.7,0-43-0.2c-2.7,0.2-5.3,0.2-7.8,0.2c-7.6,0.8-14.7,1.2-22.1,0.8c-7,0-13.5-0.2-20.1-1.2c-1.4,0.2-2.7,0.6-4.1,0.6
					c-9.8,1.2-19.4,0.6-29.1-0.8c-3.7,0.2-7.2,0.6-11.1,0.6c-10.2,0.2-20.7,0-30.9-0.8c-0.8,0-3.1-0.2-5.3-0.6c-0.6,0-1.2,0-1.8,0
					c-0.8,0-2,0-3.1,0c-6.3,0-12.5-0.6-18.2-1.8c-4.1,0.8-8.6,0.6-13.1,0.6c-2,0-4.1-0.6-5.9-1.2c-1.4,0-3.3,0.2-5.3,0.2
					c-9.2,0-18.6-1.2-27.8-1.2c-2.7,0-5.7-0.2-8.4-0.8c-2,0.2-4.1,0.2-6.6,0C2807.4,1225.2,2797,1210.9,2799.2,1197.8z"/>
				<path class="st1" d="M4628.6,1692c-28.5-0.2-76.6-5.3-123.2-18.8c-119.6-35.2-189.6-131-188.1-255.7c0-11.5-2.5-24.2,13.7-25.8
					c18.8-1.8,19.4,11.5,20.1,25.2c5.9,183.6,139.4,245.7,306,244c57.9-0.6,115.3-10.8,167.3-40.7c60.8-34.8,95.8-85.6,95.4-156.8
					c-0.2-73.1-41.4-119.1-104.6-148.6c-72.1-33.8-151.3-42.4-226.8-65.5c-39.7-12.3-79.6-25.2-119.6-36.4
					c-153.5-44.2-144.1-248.5-51.8-322.2c107.5-85.2,329.6-86.4,435.2,1.8c55.1,46.1,71.4,108.5,77,176.3
					c0.8,10.4-0.8,20.1-13.5,21.5c-14.3,1.4-19.7-7.2-20.3-20.7c-3.7-90.9-43.6-159.7-131.6-188.5C4658,846.7,4551,841.4,4452.3,905
					c-55.1,35.6-75.7,90.7-69.4,154.6c5.9,63.1,43.6,101.3,101.3,122.4c98.5,35.8,201.2,55.1,301.5,85.2
					c136.1,41.4,195.3,140,155.8,263.5c-24.2,75.7-82.9,116.7-154.6,140.2C4742.2,1686.6,4695.5,1692.2,4628.6,1692z"/>
				<path class="st1" d="M3897.7,1692.2c-51.8-2.7-106.2-7.6-158.2-26.6c-107.5-39.5-173.2-136.7-168.7-250.4
					c0.6-11.5-1.4-23.5,15.4-24.2c15.6-0.6,18.2,9.6,18.8,22.1c0.2,8,1.2,16.2,1.8,24.2c9,101.9,60.2,172.4,158.2,202.9
					c98.1,30.5,197.1,31.1,292.9-10.4c72.5-31.3,115.9-85.2,115.3-167.9c-0.6-81.1-50.2-125.9-118.5-154.1
					c-79.2-32.3-164.6-43-246.3-68c-26-8-52.4-15.4-78-24.2c-71.2-24.6-117.9-68.6-124.7-148.6c-7.6-85.2,19.2-154.6,95.2-195.7
					c127.1-68.2,257.5-64.1,382.6,5.1c71.4,39.5,94.6,110.3,98.1,188.1c0.6,11.1,2.5,24-14.3,24.8c-16.2,0.8-17.4-10.8-17.6-22.7
					c-3.9-137.6-110.7-204.3-237.5-207c-61.4-1.2-122-0.8-178.9,28.7c-66.3,34.8-100.3,87.6-96.6,164
					c3.7,73.5,47.5,114.6,112.4,134.1c98.5,29.7,198.4,53.8,297,83.5c103.2,30.9,158.2,97.2,160.1,187.3
					c2,96.8-50.6,170.1-149.2,208.4C4006.6,1685,3954.2,1690.7,3897.7,1692.2z"/>
				<path class="st1" d="M2419.7,1034.8c13.5-9.6,14.9-22.7,20.1-33.8c47.5-107.7,165.2-180.4,282.3-175.2
					c10.8,0.6,24.2-2.5,25.8,13.7c1.8,19.2-11.9,18-25.4,19.4c-199.2,24.2-298.5,134.9-302.2,341.7c-2.5,141.9-0.6,283.5-0.6,425.4
					c0,11.5,0,22.5-0.2,33.8c-0.2,9.6-5.3,14.1-15.4,14.1c-9.8,0-14.9-4.1-14.9-14.1c-0.2-9.6-0.2-19.4-0.2-29.1
					c0-248.3-0.2-496.2,0.6-744.5c0-14.1-13.5-41.4,16.2-40.7c24.6,0.6,13.5,24.8,13.7,38.7C2420.5,933.7,2419.7,983,2419.7,1034.8z
					"/>
				<path d="M6807.7,1430.5c-31.1,129-123.2,183.4-245.9,191.8c-125.9,8.6-235.2-29.1-312-136.7c-14.7-20.3-19.2-36.8,10.2-47.5
					c9-3.3,16.4-10.2,24.8-14.9c24-13.5,46.7-34.2,71.9-38.1c30.3-4.5,36.4,34.4,57.5,50.6c48.1,37.5,100.5,48.1,158.9,34.8
					c35.8-8.4,62.2-29.7,68.8-66.3c6.6-35.8-13.1-63.7-43.4-79.6c-52.4-27.4-107.5-50.2-160.7-77c-88.8-44.2-151.3-106.9-155-214.1
					c-3.7-106.9,49.3-186.7,151.1-219.9c115.3-37.5,234.8-4.1,301.1,82.3c18.6,24,27.2,42.4-9,57.1c-11.7,4.7-21.9,13.5-32.3,20.7
					c-35.2,24.8-65.5,51.4-102.6-4.1c-21.3-31.9-64.9-33.2-102.4-19.2c-28.5,10.4-44,34.2-44.6,63.5c-0.6,40.1,24.6,64.7,59,80.9
					c40.7,19.2,81.3,38.7,122.4,56.5c89.5,39.1,159.1,96,181.6,196.7C6817.3,1375.3,6816.3,1402.9,6807.7,1430.5z"/>
				<path d="M5853.6,1624.4c-78-18.8-148-49.9-191.2-123.4c-11.5-19.4-16.8-33,9.2-43.6c13.1-5.3,24.6-14.7,36.8-22.5
					c61.4-37.7,61-37.7,111.6,11.9c11.5,11.1,23.3,21.9,40.9,22.5c19.2-4.1,38.3-4.5,57.5,0.2c54.5-11.1,57.5-54.5,57.7-96.4
					c0.8-173.2,0.2-346.4,0.8-519.6c0-16.4-8-35.8,11.9-48.1c46.7-10.2,93.3-9.8,140,0c20.7,11.5,12.3,31.3,12.5,47.5
					c0.6,163.6,0.2,327.5,0.2,491.1c0,174.4-42.2,231.3-206.4,280C5908.2,1634.4,5880.8,1633.8,5853.6,1624.4z"/>
				<path class="st4" d="M6128.9,805.4c-46.7,4.5-93.3,4.1-140,0c-5.7-18.6,9.2-10.8,15.4-11.1c41.4-0.6,82.3,0,123.4,0.2
					c1.2,0,3.1,1.8,3.1,2.7C6130.7,800,6129.9,802.7,6128.9,805.4z"/>
				<path class="st5" d="M6807.7,1430.5c0-27.4-0.2-55.3-0.2-82.9c23.5,26,7.2,55.9,8.4,84.1c0,0.2-2.7,1.2-3.9,1.2
					C6810.2,1432.6,6809,1431.4,6807.7,1430.5z"/>
				<path class="st6" d="M5853.6,1624.4c27.2,0,54.7-0.2,81.9-0.2c-25.8,24.2-55.7,8-83.7,8c-0.2,0-0.8-2.7-0.6-3.9
					C5851.3,1626.7,5852.5,1625.8,5853.6,1624.4z"/>
				<path class="st5" d="M5918.5,1469.4c-19.2,5.9-38.3,5.7-57.5-0.2C5880.4,1457.4,5899.6,1457.2,5918.5,1469.4z"/>
			</g>
		</g>
	</g>
</g>
</svg>
